<mxfile host="app.diagrams.net" modified="2024-04-09T21:32:03.385Z" agent="Mozilla/5.0 (Windows NT 10.0; Win64; x64; rv:124.0) Gecko/20100101 Firefox/124.0" etag="MiDl3nvDZnErSd49x6r-" version="24.2.3" type="device">
  <diagram name="PÃ¡gina-1" id="LUXtdzhnJ8eRH99179XO">
    <mxGraphModel dx="706" dy="1210" grid="1" gridSize="10" guides="1" tooltips="1" connect="1" arrows="1" fold="1" page="1" pageScale="1" pageWidth="1169" pageHeight="827" math="0" shadow="0">
      <root>
        <mxCell id="0" />
        <mxCell id="1" parent="0" />
        <mxCell id="eHo_Isos-Ewdd2h1pUWl-1" value="" style="rounded=0;whiteSpace=wrap;html=1;rotation=-90;fillColor=#b0e3e6;strokeColor=#0e8088;" parent="1" vertex="1">
          <mxGeometry x="647.5" y="247.5" width="65" height="20" as="geometry" />
        </mxCell>
        <mxCell id="FtadC46pVUgaSJtVzE-l-14" style="edgeStyle=none;rounded=0;orthogonalLoop=1;jettySize=auto;html=1;exitX=0;exitY=0;exitDx=0;exitDy=0;dashed=1;" edge="1" parent="1" source="Vy5qMmtAEyeWuszzn6cY-2" target="eHo_Isos-Ewdd2h1pUWl-8">
          <mxGeometry relative="1" as="geometry" />
        </mxCell>
        <mxCell id="Vy5qMmtAEyeWuszzn6cY-2" value="0" style="ellipse;whiteSpace=wrap;html=1;aspect=fixed;fillColor=#fad7ac;strokeColor=#b46504;" parent="1" vertex="1">
          <mxGeometry x="400" y="160" width="80" height="80" as="geometry" />
        </mxCell>
        <mxCell id="Vy5qMmtAEyeWuszzn6cY-4" value="3" style="ellipse;whiteSpace=wrap;html=1;fillColor=#fad7ac;strokeColor=#b46504;" parent="1" vertex="1">
          <mxGeometry x="380" y="160" width="20" height="80" as="geometry" />
        </mxCell>
        <mxCell id="Vy5qMmtAEyeWuszzn6cY-5" value="1" style="ellipse;whiteSpace=wrap;html=1;fillColor=#fad7ac;strokeColor=#b46504;" parent="1" vertex="1">
          <mxGeometry x="480" y="160" width="20" height="80" as="geometry" />
        </mxCell>
        <mxCell id="Vy5qMmtAEyeWuszzn6cY-6" value="2" style="ellipse;whiteSpace=wrap;html=1;rotation=90;fillColor=#fad7ac;strokeColor=#b46504;horizontal=0;" parent="1" vertex="1">
          <mxGeometry x="430" y="210" width="20" height="80" as="geometry" />
        </mxCell>
        <mxCell id="Vy5qMmtAEyeWuszzn6cY-7" value="4" style="ellipse;whiteSpace=wrap;html=1;rotation=90;fillColor=#fad7ac;strokeColor=#b46504;horizontal=0;" parent="1" vertex="1">
          <mxGeometry x="430" y="110" width="20" height="80" as="geometry" />
        </mxCell>
        <mxCell id="Vy5qMmtAEyeWuszzn6cY-8" value="c" style="ellipse;whiteSpace=wrap;html=1;aspect=fixed;fillColor=#fad7ac;strokeColor=#b46504;" parent="1" vertex="1">
          <mxGeometry x="640" y="160" width="80" height="80" as="geometry" />
        </mxCell>
        <mxCell id="Vy5qMmtAEyeWuszzn6cY-14" value="d" style="rounded=0;whiteSpace=wrap;html=1;fillColor=#fad7ac;strokeColor=#b46504;rotation=-75;" parent="1" vertex="1">
          <mxGeometry x="587.5" y="197.5" width="80" height="5" as="geometry" />
        </mxCell>
        <mxCell id="Vy5qMmtAEyeWuszzn6cY-15" value="b" style="rounded=0;whiteSpace=wrap;html=1;fillColor=#fad7ac;strokeColor=#b46504;rotation=75;" parent="1" vertex="1">
          <mxGeometry x="693.75" y="196.25" width="80" height="5" as="geometry" />
        </mxCell>
        <mxCell id="Vy5qMmtAEyeWuszzn6cY-16" value="a" style="rounded=0;whiteSpace=wrap;html=1;fillColor=#fad7ac;strokeColor=#b46504;rotation=0;horizontal=1;" parent="1" vertex="1">
          <mxGeometry x="640" y="147.5" width="80" height="5" as="geometry" />
        </mxCell>
        <mxCell id="Vy5qMmtAEyeWuszzn6cY-17" value="y" style="endArrow=classic;html=1;rounded=0;" parent="1" edge="1">
          <mxGeometry width="50" height="50" relative="1" as="geometry">
            <mxPoint x="345" y="289.16999999999996" as="sourcePoint" />
            <mxPoint x="345" y="99.59" as="targetPoint" />
          </mxGeometry>
        </mxCell>
        <mxCell id="Vy5qMmtAEyeWuszzn6cY-18" value="x" style="endArrow=classic;html=1;rounded=0;" parent="1" edge="1">
          <mxGeometry width="50" height="50" relative="1" as="geometry">
            <mxPoint x="345" y="289.16999999999996" as="sourcePoint" />
            <mxPoint x="535" y="289.59" as="targetPoint" />
          </mxGeometry>
        </mxCell>
        <mxCell id="Vy5qMmtAEyeWuszzn6cY-19" value="z" style="endArrow=classic;html=1;rounded=0;" parent="1" edge="1">
          <mxGeometry width="50" height="50" relative="1" as="geometry">
            <mxPoint x="585" y="289.16999999999996" as="sourcePoint" />
            <mxPoint x="585" y="99.59" as="targetPoint" />
          </mxGeometry>
        </mxCell>
        <mxCell id="Vy5qMmtAEyeWuszzn6cY-20" value="x" style="endArrow=classic;html=1;rounded=0;" parent="1" edge="1">
          <mxGeometry width="50" height="50" relative="1" as="geometry">
            <mxPoint x="585" y="289.16999999999996" as="sourcePoint" />
            <mxPoint x="775" y="289.59" as="targetPoint" />
          </mxGeometry>
        </mxCell>
        <mxCell id="Vy5qMmtAEyeWuszzn6cY-22" value="Vista superior" style="text;html=1;align=center;verticalAlign=middle;resizable=0;points=[];autosize=1;strokeColor=none;fillColor=none;" parent="1" vertex="1">
          <mxGeometry x="390" y="90" width="100" height="30" as="geometry" />
        </mxCell>
        <mxCell id="Vy5qMmtAEyeWuszzn6cY-23" value="Vista lateral" style="text;html=1;align=center;verticalAlign=middle;resizable=0;points=[];autosize=1;strokeColor=none;fillColor=none;" parent="1" vertex="1">
          <mxGeometry x="635" y="90" width="90" height="30" as="geometry" />
        </mxCell>
        <mxCell id="eHo_Isos-Ewdd2h1pUWl-3" value="" style="rounded=0;whiteSpace=wrap;html=1;rotation=-90;fillColor=#b0e3e6;strokeColor=#0e8088;" parent="1" vertex="1">
          <mxGeometry x="406.88" y="650" width="65" height="20" as="geometry" />
        </mxCell>
        <mxCell id="eHo_Isos-Ewdd2h1pUWl-4" value="c" style="ellipse;whiteSpace=wrap;html=1;aspect=fixed;fillColor=#fad7ac;strokeColor=#b46504;" parent="1" vertex="1">
          <mxGeometry x="399.38" y="562.5" width="80" height="80" as="geometry" />
        </mxCell>
        <mxCell id="eHo_Isos-Ewdd2h1pUWl-5" value="d" style="rounded=0;whiteSpace=wrap;html=1;fillColor=#fad7ac;strokeColor=#b46504;rotation=-75;" parent="1" vertex="1">
          <mxGeometry x="346.88" y="600" width="80" height="5" as="geometry" />
        </mxCell>
        <mxCell id="eHo_Isos-Ewdd2h1pUWl-6" value="b" style="rounded=0;whiteSpace=wrap;html=1;fillColor=#fad7ac;strokeColor=#b46504;rotation=75;" parent="1" vertex="1">
          <mxGeometry x="453.13" y="598.75" width="80" height="5" as="geometry" />
        </mxCell>
        <mxCell id="eHo_Isos-Ewdd2h1pUWl-7" value="a" style="rounded=0;whiteSpace=wrap;html=1;fillColor=#fad7ac;strokeColor=#b46504;rotation=0;" parent="1" vertex="1">
          <mxGeometry x="399.38" y="550" width="80" height="5" as="geometry" />
        </mxCell>
        <mxCell id="eHo_Isos-Ewdd2h1pUWl-8" value="" style="ellipse;whiteSpace=wrap;html=1;aspect=fixed;fillColor=#fff2cc;strokeColor=#d6b656;gradientColor=#ffd966;" parent="1" vertex="1">
          <mxGeometry x="230" y="-10" width="80" height="80" as="geometry" />
        </mxCell>
        <mxCell id="FtadC46pVUgaSJtVzE-l-1" value="1a + 0.8b + 0.8c + 0.8d + 0.8e" style="text;html=1;align=center;verticalAlign=middle;resizable=0;points=[];autosize=1;strokeColor=none;fillColor=none;" vertex="1" parent="1">
          <mxGeometry x="615" y="322" width="180" height="30" as="geometry" />
        </mxCell>
        <mxCell id="FtadC46pVUgaSJtVzE-l-2" value="0.7a + 0.8b + 0.4c + 0.6d + 0.9e" style="text;html=1;align=center;verticalAlign=middle;resizable=0;points=[];autosize=1;strokeColor=none;fillColor=none;" vertex="1" parent="1">
          <mxGeometry x="610" y="352" width="190" height="30" as="geometry" />
        </mxCell>
        <mxCell id="FtadC46pVUgaSJtVzE-l-3" value="-0.3a + 0b -0.4c -0.2d + 0.1e" style="text;html=1;align=center;verticalAlign=middle;resizable=0;points=[];autosize=1;strokeColor=none;fillColor=none;" vertex="1" parent="1">
          <mxGeometry x="615" y="384" width="180" height="30" as="geometry" />
        </mxCell>
        <mxCell id="FtadC46pVUgaSJtVzE-l-11" value="&lt;div&gt;t = [a, b, c, d, e]&lt;/div&gt;&lt;div&gt;t0 = [&lt;strike&gt;500&lt;/strike&gt;, 300, 300, 800, 800]&lt;br&gt;&lt;/div&gt;" style="text;html=1;align=center;verticalAlign=middle;resizable=0;points=[];autosize=1;strokeColor=none;fillColor=none;" vertex="1" parent="1">
          <mxGeometry x="100" y="133" width="180" height="40" as="geometry" />
        </mxCell>
        <mxCell id="FtadC46pVUgaSJtVzE-l-12" value="tb = [&lt;strike&gt;1000&lt;/strike&gt;, 400, 400, 400, 400]" style="text;html=1;align=center;verticalAlign=middle;resizable=0;points=[];autosize=1;strokeColor=none;fillColor=none;" vertex="1" parent="1">
          <mxGeometry x="100" y="110" width="190" height="30" as="geometry" />
        </mxCell>
      </root>
    </mxGraphModel>
  </diagram>
</mxfile>
